<svg xmlns="http://www.w3.org/2000/svg" width="240" height="240" viewBox="0 0 240 240" role="img" aria-label="PondyPOS PP logo">
  <defs>
    <linearGradient id="pp-bg" x1="32" y1="24" x2="210" y2="220" gradientUnits="userSpaceOnUse">
      <stop offset="0" stop-color="#c9422d"/>
      <stop offset="0.52" stop-color="#5f241c"/>
      <stop offset="1" stop-color="#241916"/>
    </linearGradient>
    <linearGradient id="pp-blue" x1="66" y1="44" x2="170" y2="188" gradientUnits="userSpaceOnUse">
      <stop offset="0" stop-color="#ffe2a0"/>
      <stop offset="1" stop-color="#d89a2d"/>
    </linearGradient>
  </defs>
  <rect x="16" y="16" width="208" height="208" rx="52" fill="url(#pp-bg)"/>
  <circle cx="120" cy="120" r="78" fill="#fff7ec" opacity="0.96"/>
  <path d="M68 171V67h48c24 0 41 15 41 37s-17 37-41 37H96v30H68Zm28-55h17c9 0 15-5 15-12s-6-12-15-12H96v24Z" fill="#5f241c"/>
  <path d="M121 171V67h48c24 0 41 15 41 37s-17 37-41 37h-20v30h-28Zm28-55h17c9 0 15-5 15-12s-6-12-15-12h-17v24Z" fill="#c9422d"/>
  <path d="M65 187h110" stroke="url(#pp-blue)" stroke-width="10" stroke-linecap="round"/>
  <path d="M64 54c14-16 34-25 56-25s42 9 56 25" stroke="url(#pp-blue)" stroke-width="8" stroke-linecap="round" fill="none"/>
</svg>
